<svg xmlns="http://www.w3.org/2000/svg" version="1.1" xmlns:xlink="http://www.w3.org/1999/xlink" width="512" height="512" x="0" y="0" viewBox="0 0 512 512" style="enable-background:new 0 0 512 512" xml:space="preserve" class=""><g><path d="M380.844 192.583c-12.524-15.558-37.02-14.123-51.143 0l33.321-33.321c14.123-14.123 14.123-37.02 0-51.143-14.123-14.123-37.02-14.122-51.143 0l14.846-14.846c14.123-14.123 14.123-37.02 0-51.143-14.123-14.123-37.02-14.123-51.143 0L245.76 71.952c14.122-14.123 15.245-38.906 0-51.143C210.575-7.432 135.734 74.952 88.081 134.43V93.078c0-22.252-18.039-40.291-40.29-40.291C25.539 52.787 7.5 70.826 7.5 93.078v65.844h.058c0 60.496-2.991 119.405 65.562 187.958 45.62 45.62 124.723 55.853 180.988 17.87 34.409-23.229 162.077-128.268 126.736-172.167z" style="" fill="#e9a982" data-original="#e9a982"></path><path d="M383.261 228.822c-19.134-18.734-36.019-31.327-51.315-38.291a36.75 36.75 0 0 0-2.244 2.051l2.113-2.113c-9.717-4.406-18.796-6.546-27.406-6.546-14.587 0-27.157 6.15-36.036 16.243-37.321-14.227-76.402 14.799-74.331 54.198-25.269 14.208-34.887 45.348-22.84 71.128-11.708 10.918-17.522 26.611-14.79 44.74.827 5.486 2.448 11.179 4.859 17.094 32.005 3.106 65.18-3.906 92.837-22.577 26.855-18.129 110.516-86.091 129.153-135.927z" style="" fill="#c7856a" data-original="#c7856a"></path><path d="M187.457 347.56c9.641-11.976 28.498-10.872 39.37 0l-25.65-25.65c-10.872-10.872-10.872-28.498 0-39.37 10.872-10.871 28.498-10.871 39.37 0l-11.428-11.428c-10.872-10.872-10.872-28.498 0-39.37 10.872-10.872 28.498-10.872 39.37 0l22.957 22.957c-10.872-10.871-11.736-29.95 0-39.37 27.087-21.74 84.7 41.679 121.382 87.465v-31.833c0-17.13 13.886-31.016 31.016-31.016 17.129 0 31.016 13.886 31.016 31.016v50.686h-.044c0 46.57 2.303 91.918-50.469 144.69-35.118 35.118-96.012 42.996-139.325 13.756-26.491-17.88-124.77-98.739-97.565-132.533z" style="" fill="#ffd3bc" data-original="#ffd3bc"></path><path d="M381.344 51.429c0 32.463 36.289 53.842 55.154 62.833a14.925 14.925 0 0 0 12.849 0c18.865-8.991 55.154-30.37 55.154-62.833 0-20.686-16.769-37.455-37.455-37.455a37.279 37.279 0 0 0-22.357 7.405 2.949 2.949 0 0 1-3.532 0 37.286 37.286 0 0 0-22.357-7.405c-20.687 0-37.456 16.769-37.456 37.455z" style="" fill="#ff6e80" data-original="#ff6e80"></path><path d="M488.827 86.852c-70.936 7.011-83.11-46.57-76.681-72.276-17.51 3.141-30.803 18.44-30.803 36.854 0 32.463 36.289 53.842 55.154 62.833a14.925 14.925 0 0 0 12.849 0c10.809-5.152 27.335-14.372 39.481-27.411z" style="" fill="#f8475e" data-original="#f8475e"></path><path d="M444.547 443.09c-5.627 7.602-12.297 15.341-20.203 23.248-35.118 35.118-96.012 42.996-139.325 13.756-26.488-17.881-124.767-98.74-97.562-132.534 9.641-11.976 28.498-10.872 39.37 0l-25.65-25.65c-10.872-10.872-10.872-28.498 0-39.37v0c10.872-10.871 28.498-10.871 39.37 0l-11.428-11.428c-10.872-10.872-10.872-28.498 0-39.37v0c10.872-10.872 28.498-10.872 39.37 0l22.957 22.957c-10.872-10.871-11.736-29.95 0-39.37 27.087-21.74 84.7 41.679 121.382 87.465v-31.833c0-17.13 13.886-31.016 31.016-31.016h0c17.129 0 31.016 13.886 31.016 31.016v50.686h-.044c0 29.957.953 59.408-12.414 90.655M381.344 51.429c0 32.463 36.289 53.842 55.154 62.833a14.925 14.925 0 0 0 12.849 0c18.865-8.991 55.154-30.37 55.154-62.833 0-20.686-16.769-37.455-37.455-37.455a37.279 37.279 0 0 0-22.357 7.405 2.949 2.949 0 0 1-3.532 0 37.286 37.286 0 0 0-22.357-7.405c-20.687 0-37.456 16.769-37.456 37.455z" style="stroke-width:15;stroke-linecap:round;stroke-linejoin:round;stroke-miterlimit:10;" fill="none" stroke="#000000" stroke-width="15" stroke-linecap="round" stroke-linejoin="round" stroke-miterlimit="10" data-original="#000000"></path><path d="M203.312 22.608C166.55 41.713 120.877 93.496 88.081 134.43V93.078c0-22.252-18.039-40.29-40.291-40.29h0c-22.252 0-40.29 18.039-40.29 40.29v65.844h.058c0 60.496-2.991 119.405 65.562 187.958 30.166 30.166 74.973 44.853 118.136 40.363M369.9 253.74c15.975-23.74 23.096-46.063 10.944-61.157-12.525-15.558-37.02-14.123-51.143 0l33.321-33.321c14.123-14.123 14.123-37.02 0-51.143v0c-14.123-14.123-37.02-14.122-51.143 0l14.846-14.846c14.122-14.123 14.122-37.02 0-51.143h0c-14.123-14.123-37.02-14.123-51.143 0L245.76 71.952c14.122-14.123 15.245-38.907 0-51.143-2.613-2.098-5.446-3.585-8.469-4.517M245.762 71.952l-56.327 56.326M311.88 108.119l-70.14 70.14M291.444 254.698l46.771 46.772M240.546 282.54l57.405 57.405M226.827 347.56l41.832 41.832M329.702 192.583l-18.934 18.933" style="stroke-width:15;stroke-linecap:round;stroke-linejoin:round;stroke-miterlimit:10;" fill="none" stroke="#000000" stroke-width="15" stroke-linecap="round" stroke-linejoin="round" stroke-miterlimit="10" data-original="#000000"></path><path d="M115.85 175.63c19.504 29.087 24.712 67.703 17.247 110.198" style="stroke-width:15;stroke-linecap:round;stroke-linejoin:round;stroke-miterlimit:10;" fill="none" stroke="#000000" stroke-width="15" stroke-linecap="round" stroke-linejoin="round" stroke-miterlimit="10" data-original="#000000"></path></g></svg>