<svg xmlns="http://www.w3.org/2000/svg" version="1.1" xmlns:xlink="http://www.w3.org/1999/xlink" width="512" height="512" x="0" y="0" viewBox="0 0 512 512" style="enable-background:new 0 0 512 512" xml:space="preserve" class=""><g><path fill="#555f70" d="M285.468 459.508h122.945v41.486H285.468z" opacity="1" data-original="#555f70"></path><path fill="#ffb09e" d="M438.274 168.5c1.67-5.637 5.451-10.296 10.647-13.117a22.111 22.111 0 0 1 10.524-2.698c2.108 0 4.21.307 6.249.912 11.366 3.374 18.109 15.443 15.032 26.904l-.588 2.19-2.268.032c-4.813.068-9.631 1.339-13.935 3.676-7.082 3.846-12.237 10.191-14.516 17.866l-19.239 64.876-2.76-.653a29.75 29.75 0 0 0-14.111.089l-5.102 1.279z" opacity="1" data-original="#ffb09e" class=""></path><path fill="#ffcebf" d="M305.705 451.506v-72.527c0-25.1 12.409-46.766 34.045-59.442l69.703-40.818a21.942 21.942 0 0 1 11.09-3.021c3.551 0 7.117.882 10.313 2.55.064.033.127.057.188.083l.222.095.285.164c6.828 4.315 11.27 12.215 11.315 20.125.046 7.437-3.897 13.859-11.103 18.082l-41.459 24.277 4.044 6.905L435.81 323.7c9.629-5.644 15.117-14.769 15.058-25.032-.055-9.298-4.503-18.48-11.9-24.561l-1.536-1.263 19.66-66.303c1.672-5.629 5.458-10.285 10.663-13.111 3.258-1.77 6.906-2.706 10.552-2.706 2.104 0 4.204.306 6.237.91 11.662 3.463 18.335 15.778 14.875 27.454L461.35 347.563l-72.046 74.321a3.971 3.971 0 0 0-1.129 2.784v26.837h-82.47z" opacity="1" data-original="#ffcebf" class=""></path><path fill="#ffb09e" d="M98.691 268.572a29.82 29.82 0 0 0-14.117-.083l-2.76.653-19.24-64.879c-2.278-7.672-7.427-14.016-14.498-17.861-4.297-2.338-9.112-3.609-13.925-3.677l-2.261-.032-.593-2.182c-1.486-5.479-.809-11.255 1.909-16.266 2.82-5.196 7.47-8.977 13.095-10.647a21.946 21.946 0 0 1 6.249-.912c3.641 0 7.286.933 10.54 2.698 5.205 2.823 8.991 7.482 10.661 13.118l30.035 101.346z" opacity="1" data-original="#ffb09e" class=""></path><path fill="#ffcebf" d="M123.822 451.506v-26.837c0-1.045-.4-2.034-1.126-2.783l-72.021-74.322-38.097-128.475c-3.457-11.672 3.229-23.987 14.905-27.454a21.965 21.965 0 0 1 6.254-.912c9.699 0 18.403 6.503 21.166 15.815l19.663 66.309-1.535 1.264c-7.396 6.088-11.84 15.276-11.888 24.577-.053 10.258 5.441 19.376 15.075 25.015l41.457 24.276 4.044-6.905-41.457-24.276c-7.208-4.22-11.156-10.637-11.117-18.069.039-7.911 4.476-15.816 11.303-20.139l.201-.127.219-.094c.147-.063.212-.088.274-.12a22.423 22.423 0 0 1 10.327-2.553c3.893 0 7.734 1.046 11.11 3.026l69.67 40.815c21.652 12.672 34.071 34.337 34.071 59.442v72.527z" opacity="1" data-original="#ffcebf" class=""></path><path fill="#ffac71" d="M202.874 241.624v-86.873c0-10.208-8.306-18.514-18.514-18.514h-49.687c-7.271 0-13.908 4.301-16.907 10.957l-2.349 5.21-2.955-4.892a89.842 89.842 0 0 1 13.392-110.194c16.987-16.973 39.602-26.32 63.678-26.32s46.682 9.347 63.652 26.319c.756.755 1.761 1.172 2.83 1.172s2.074-.417 2.83-1.172c16.927-16.928 39.531-26.25 63.65-26.25 24.118 0 46.723 9.323 63.65 26.25a89.842 89.842 0 0 1 13.391 110.195l-2.955 4.892-2.349-5.21c-3-6.656-9.636-10.957-16.907-10.957h-49.658c-10.224 0-18.541 8.305-18.541 18.514v86.888l-9.74 9.741v-30.588c0-10.224-8.318-18.542-18.542-18.542h-49.687c-10.209 0-18.514 8.318-18.514 18.542v30.597zm55.407-121.316c-19.132 0-34.697 15.565-34.697 34.698 0 19.148 15.565 34.726 34.697 34.726s34.697-15.578 34.697-34.726c.001-19.132-15.565-34.698-34.697-34.698zm96.483-66.04c-19.133 0-34.698 15.565-34.698 34.698 0 19.148 15.565 34.726 34.698 34.726 19.147 0 34.726-15.578 34.726-34.726-.001-19.133-15.579-34.698-34.726-34.698zm-192.965 0c-19.132 0-34.697 15.565-34.697 34.698 0 19.148 15.565 34.726 34.697 34.726s34.697-15.578 34.697-34.726c0-19.133-15.565-34.698-34.697-34.698z" opacity="1" data-original="#ef5350" class=""></path><path fill="#555f70" d="M103.613 459.508h122.918v41.486H103.613z" opacity="1" data-original="#555f70"></path><g fill="#ffcebf"><path d="M161.799 115.688c-14.72 0-26.695-11.988-26.695-26.723 0-14.72 11.976-26.695 26.695-26.695s26.695 11.976 26.695 26.695c0 14.736-11.975 26.723-26.695 26.723zM354.764 115.688c-14.72 0-26.695-11.988-26.695-26.723 0-14.72 11.976-26.695 26.695-26.695 14.735 0 26.723 11.976 26.723 26.695-.001 14.736-11.988 26.723-26.723 26.723zM258.281 181.729c-14.72 0-26.695-11.988-26.695-26.724 0-14.72 11.976-26.695 26.695-26.695s26.695 11.975 26.695 26.695c.001 14.736-11.975 26.724-26.695 26.724z" fill="#ffcebf" opacity="1" data-original="#ffcebf" class=""></path></g><path fill="#5faaeb" d="M317.128 154.751c0-5.795 4.728-10.511 10.538-10.511h49.658c5.812 0 10.54 4.715 10.54 10.511v8.08l-.849.873-.32.34c-.181.194-.362.387-.551.575l-69.017 69.017v-78.885z" opacity="1" data-original="#44c689" class=""></path><path fill="#e2f099" d="M125.854 164.62a23.625 23.625 0 0 1-.559-.585l-.315-.334-.845-.873v-8.077c0-5.795 4.728-10.511 10.539-10.511h49.687c5.796 0 10.511 4.715 10.511 10.511v78.872z" opacity="1" data-original="#3bbdf3" class=""></path><path fill="#fedfb7" d="M220.645 259.39v-38.598c0-5.812 4.716-10.54 10.512-10.54h49.687c5.812 0 10.539 4.728 10.539 10.54v38.59l-35.369 35.369z" opacity="1" data-original="#fac149" class=""></path><path d="M161.799 126.691c20.786 0 37.698-16.924 37.698-37.726 0-20.786-16.912-37.698-37.698-37.698s-37.697 16.911-37.697 37.698c0 20.802 16.911 37.726 37.697 37.726zm0-61.421c13.066 0 23.695 10.629 23.695 23.695 0 13.082-10.629 23.723-23.695 23.723s-23.695-10.642-23.695-23.723c0-13.066 10.629-23.695 23.695-23.695zM354.763 126.691c20.802 0 37.726-16.924 37.726-37.726 0-20.786-16.924-37.698-37.726-37.698-20.786 0-37.698 16.911-37.698 37.698 0 20.802 16.912 37.726 37.698 37.726zm0-61.421c13.082 0 23.724 10.629 23.724 23.695 0 13.082-10.642 23.723-23.724 23.723-13.066 0-23.695-10.642-23.695-23.723 0-13.066 10.629-23.695 23.695-23.695zM334.191 310.042c-25.095 14.704-39.488 39.83-39.488 68.937v69.527h-13.236a7 7 0 0 0-7.001 7.001v49.489a7 7 0 0 0 7.001 7.001h130.948a7.001 7.001 0 0 0 7.001-7.001v-49.489a7 7 0 0 0-7.001-7.001h-13.236v-21l70.756-72.99a7.011 7.011 0 0 0 1.686-2.884l38.349-129.418c4.782-16.138-3.37-33.085-18.387-39.685 4.099-16.98-5.829-34.454-22.753-39.479-8.446-2.509-17.379-1.561-25.158 2.664-7.777 4.224-13.44 11.207-15.945 19.658l-32.269 108.793zm71.222 152.466v35.486H288.468v-35.486h103.709zm35.737-293.155c1.443-4.869 4.711-8.895 9.203-11.334 4.49-2.44 9.636-2.986 14.489-1.546 9.923 2.946 15.658 13.307 12.989 23.25-5.288.075-10.524 1.432-15.325 4.04-7.785 4.228-13.452 11.205-15.959 19.648l-18.432 62.158a32.772 32.772 0 0 0-15.532.099zm-11.682 111.555c.157.082.32.148.481.218 5.921 3.743 9.877 10.702 9.918 17.607.026 4.472-1.622 10.788-9.619 15.476l-44.047 25.792 7.076 12.083 44.05-25.794c10.579-6.202 16.608-16.276 16.542-27.639-.06-10.297-5.029-20.312-12.995-26.861l19.095-64.395c1.443-4.86 4.716-8.883 9.219-11.327 4.498-2.444 9.649-2.998 14.503-1.557 10.077 2.992 15.843 13.635 12.853 23.725l-37.861 127.768-71.533 73.792a6.995 6.995 0 0 0-1.974 4.873v23.837h-76.471v-69.527c0-24.008 11.868-44.73 32.562-56.854l69.703-40.818c5.679-3.331 12.593-3.481 18.498-.399z" fill="#000000" opacity="1" data-original="#000000" class=""></path><path d="M251.064 305.36c1.367 1.367 3.158 2.051 4.95 2.051s3.584-.684 4.951-2.051l132.96-132.96c39.387-39.388 39.387-103.475 0-142.863C374.919 10.532 349.551.064 322.494.064c-24.771 0-48.126 8.774-66.48 24.84-39.632-34.68-100.141-33.137-137.938 4.63l-.001.002c-39.388 39.388-39.388 103.475 0 142.863zm-59.193-78.979-63.896-63.883c-.289-.289-.557-.592-.841-.885v-6.863c0-4.142 3.381-7.511 7.54-7.511h49.687c4.142 0 7.511 3.369 7.511 7.511v71.631zm96.511 31.759-32.369 32.369-32.368-32.361v-37.356c0-4.158 3.369-7.539 7.511-7.539h49.687c4.158 0 7.539 3.382 7.539 7.539zm96.482-96.526c-.284.292-.552.596-.841.885l-63.896 63.895v-71.643c0-4.142 3.381-7.511 7.538-7.511h49.659c4.158 0 7.54 3.369 7.54 7.511zM127.974 39.44c33.95-33.921 89.169-33.923 123.089-.001a7.001 7.001 0 0 0 9.901 0c16.361-16.362 38.212-25.372 61.53-25.372 23.317 0 45.168 9.01 61.529 25.372 28.848 28.847 33.151 73.069 12.943 106.523-3.374-7.488-10.901-12.724-19.642-12.724h-49.659c-11.877 0-21.541 9.651-21.541 21.514v85.645l-3.741 3.741v-23.345c0-11.878-9.664-21.542-21.542-21.542h-49.687c-11.862 0-21.514 9.664-21.514 21.542v23.356l-3.768-3.767v-85.63c0-11.862-9.651-21.514-21.514-21.514h-49.687c-8.741 0-16.268 5.235-19.642 12.724-20.205-33.454-15.902-77.675 12.945-106.522zM40.407 351.633a7.006 7.006 0 0 0 1.684 2.882l70.729 72.99v21.001H99.612a7 7 0 0 0-7.001 7.001v49.489a7 7 0 0 0 7.001 7.001h130.92a7.001 7.001 0 0 0 7.001-7.001v-49.489a7.001 7.001 0 0 0-7.001-7.001h-13.208v-69.527c0-29.114-14.404-54.241-39.519-68.938l-61.268-35.893-32.236-108.773c-2.504-8.453-8.174-15.436-15.962-19.662-7.787-4.223-16.725-5.168-25.168-2.662-16.939 5.03-26.854 22.501-22.728 39.48-15.03 6.603-23.193 23.55-18.413 39.685zm183.124 110.875v35.486H106.614v-35.486h103.709zM35.845 165.675c2.438-4.491 6.454-7.759 11.312-9.201s10.009-.891 14.506 1.547c4.5 2.441 7.772 6.466 9.215 11.333l28.542 96.308a32.823 32.823 0 0 0-15.535-.093l-18.433-62.16c-2.507-8.441-8.167-15.417-15.941-19.644-4.796-2.609-10.03-3.966-15.316-4.04-1.282-4.724-.713-9.695 1.65-14.05zm-7.508 28.836c10.067-2.99 20.696 2.791 23.691 12.881l19.098 64.402c-7.965 6.556-12.929 16.578-12.982 26.878-.059 11.357 5.978 21.425 16.56 27.619l44.045 25.793 7.076-12.083-44.046-25.792c-8.003-4.685-9.656-10.996-9.633-15.464.034-6.908 3.988-13.871 9.908-17.62.16-.069.321-.135.477-.216 5.913-3.086 12.84-2.936 18.532.401l69.668 40.815.003.002c20.71 12.119 32.587 32.842 32.587 56.853v69.527h-76.499V424.67a7.001 7.001 0 0 0-1.974-4.872l-71.507-73.793-37.887-127.769c-2.988-10.086 2.791-20.728 12.883-23.725z" fill="#000000" opacity="1" data-original="#000000" class=""></path><path d="M258.281 192.732c20.786 0 37.698-16.924 37.698-37.726 0-20.786-16.912-37.698-37.698-37.698s-37.698 16.912-37.698 37.698c0 20.802 16.912 37.726 37.698 37.726zm0-61.421c13.066 0 23.695 10.629 23.695 23.695 0 13.082-10.629 23.723-23.695 23.723s-23.695-10.642-23.695-23.723c0-13.066 10.629-23.695 23.695-23.695z" fill="#000000" opacity="1" data-original="#000000" class=""></path></g></svg>